<?xml version="1.0" standalone="no"?>
<!DOCTYPE svg PUBLIC "-//W3C//DTD SVG 20010904//EN"
 "http://www.w3.org/TR/2001/REC-SVG-20010904/DTD/svg10.dtd">
<svg version="1.0" xmlns="http://www.w3.org/2000/svg"
 width="900.000000pt" height="900.000000pt" viewBox="0 0 900.000000 900.000000"
 preserveAspectRatio="xMidYMid meet">
<metadata>
Created by potrace 1.11, written by Peter Selinger 2001-2013
</metadata>
<g transform="translate(0.000000,900.000000) scale(0.100000,-0.100000)"
fill="#000000" stroke="none">
<path d="M160 8581 c-19 -5 -26 -16 -32 -46 -3 -22 -11 -440 -17 -930 -17
-1400 -30 -2198 -43 -2615 -16 -508 -15 -1742 1 -1870 14 -114 69 -349 113
-480 103 -312 303 -655 558 -955 136 -160 448 -457 598 -568 353 -264 690
-452 1092 -610 410 -162 757 -251 1270 -329 l215 -32 520 -1 c552 0 582 2 910
56 1185 196 2156 764 2761 1614 222 312 432 719 556 1075 130 375 207 717 260
1150 19 160 22 235 22 550 1 325 -2 384 -22 540 -86 653 -205 1045 -469 1550
-152 291 -306 502 -526 723 -89 89 -203 197 -254 239 -167 139 -406 286 -625
384 -624 280 -1409 430 -2543 484 -121 6 -337 17 -480 25 -414 23 -883 34
-1890 45 -1049 11 -1937 12 -1975 1z m4042 -2658 c53 -29 150 -101 770 -577
787 -604 775 -593 802 -687 20 -65 20 -92 1 -155 -27 -91 -66 -126 -480 -426
-110 -79 -319 -232 -465 -339 -658 -484 -707 -514 -817 -491 -102 21 -178 83
-209 169 -10 29 -13 115 -14 348 0 420 18 1586 30 1817 8 170 11 191 34 236
44 87 122 131 235 132 50 0 73 -5 113 -27z"/>
</g>
</svg>
