<?xml version="1.0" standalone="no"?>
<!DOCTYPE svg PUBLIC "-//W3C//DTD SVG 20010904//EN"
 "http://www.w3.org/TR/2001/REC-SVG-20010904/DTD/svg10.dtd">
<svg version="1.0" xmlns="http://www.w3.org/2000/svg"
 width="900.000000pt" height="900.000000pt" viewBox="0 0 900.000000 900.000000"
 preserveAspectRatio="xMidYMid meet">
<metadata>
Created by potrace 1.11, written by Peter Selinger 2001-2013
</metadata>
<g transform="translate(0.000000,900.000000) scale(0.100000,-0.100000)"
fill="#000000" stroke="none">
<path d="M160 8581 c-19 -5 -26 -16 -32 -46 -4 -22 -11 -440 -17 -930 -17
-1402 -30 -2199 -43 -2610 -16 -504 -15 -1747 1 -1875 14 -114 69 -349 113
-480 103 -313 308 -664 558 -955 133 -155 446 -455 575 -551 264 -198 417
-295 680 -430 515 -265 1031 -424 1705 -526 l215 -32 520 -1 c552 0 582 2 910
56 1185 196 2156 764 2761 1614 226 318 434 722 560 1090 129 374 203 702 256
1135 19 160 22 235 22 550 1 325 -2 384 -22 540 -86 653 -204 1042 -469 1550
-150 287 -306 502 -526 723 -191 192 -305 289 -459 390 -218 144 -391 230
-668 334 -576 215 -1296 335 -2295 383 -121 6 -337 17 -480 25 -410 23 -889
34 -1885 45 -1035 11 -1942 12 -1980 1z m4058 -2668 c35 -20 156 -109 270
-197 114 -87 398 -305 632 -484 620 -475 627 -481 654 -573 20 -66 20 -92 0
-159 -22 -75 -93 -142 -333 -315 -106 -77 -297 -217 -425 -310 -677 -499 -837
-609 -909 -625 -104 -24 -223 28 -282 124 l-30 49 -4 211 c-4 267 17 1734 29
1963 8 154 11 177 34 222 44 87 122 130 236 131 58 0 73 -4 128 -37z"/>
</g>
</svg>
