<?xml version="1.0" standalone="no"?>
<!DOCTYPE svg PUBLIC "-//W3C//DTD SVG 20010904//EN"
 "http://www.w3.org/TR/2001/REC-SVG-20010904/DTD/svg10.dtd">
<svg version="1.0" xmlns="http://www.w3.org/2000/svg"
 width="900.000000pt" height="900.000000pt" viewBox="0 0 900.000000 900.000000"
 preserveAspectRatio="xMidYMid meet">
<metadata>
Created by potrace 1.11, written by Peter Selinger 2001-2013
</metadata>
<g transform="translate(0.000000,900.000000) scale(0.100000,-0.100000)"
fill="#000000" stroke="none">
<path d="M148 8578 c-28 -22 -29 -39 -43 -1373 -13 -1202 -22 -1746 -41 -2390
-7 -257 -10 -1384 -4 -1565 3 -81 14 -193 24 -235 3 -11 14 -63 26 -115 11
-52 25 -108 30 -125 102 -329 158 -452 342 -744 50 -79 159 -233 178 -251 3
-3 30 -34 60 -70 91 -109 342 -363 470 -477 81 -71 456 -343 474 -343 3 0 24
-13 48 -29 121 -81 483 -263 683 -342 274 -108 670 -231 824 -255 20 -3 39 -8
42 -10 3 -2 21 -6 40 -9 19 -3 84 -15 144 -25 105 -19 265 -44 350 -54 22 -3
60 -8 85 -11 155 -20 951 -20 1123 0 240 28 304 37 472 70 66 13 131 26 145
28 93 17 425 109 535 150 22 8 69 24 105 37 101 35 329 134 453 196 107 54
372 209 448 263 20 14 47 33 59 41 20 14 83 59 155 113 202 151 499 451 663
671 75 99 230 330 275 408 62 108 197 381 265 538 74 170 223 643 248 789 3
14 14 69 25 121 27 131 51 287 64 410 3 30 8 73 11 95 4 22 8 54 10 70 9 65
11 735 3 815 -13 129 -19 177 -64 485 -3 22 -5 29 -30 150 -113 553 -358 1099
-695 1550 -76 102 -298 331 -438 453 -269 235 -626 428 -1043 565 -209 69
-260 83 -554 152 -101 24 -434 80 -600 100 -27 4 -61 8 -75 10 -14 2 -52 7
-85 10 -33 3 -73 8 -90 10 -16 2 -64 7 -105 10 -41 4 -91 8 -110 10 -152 14
-385 28 -640 40 -157 7 -332 16 -375 20 -36 3 -153 9 -430 20 -320 13 -1090
23 -2355 30 -892 5 -1088 4 -1102 -7z m4034 -2644 c61 -31 170 -111 666 -495
46 -35 99 -75 117 -89 18 -14 106 -81 196 -149 90 -69 166 -127 169 -130 3 -3
61 -49 130 -101 69 -52 130 -99 136 -105 6 -5 30 -26 54 -45 121 -97 160 -195
126 -312 -28 -98 -45 -112 -521 -459 -110 -80 -321 -234 -470 -343 -148 -109
-279 -204 -290 -212 -11 -8 -43 -31 -72 -51 -252 -182 -281 -198 -364 -197
-120 0 -219 69 -255 176 -13 41 -15 102 -14 401 1 193 3 442 5 552 2 110 6
371 9 580 12 755 16 814 62 887 60 94 220 141 316 92z"/>
</g>
</svg>
