<?xml version="1.0" standalone="no"?>
<!DOCTYPE svg PUBLIC "-//W3C//DTD SVG 20010904//EN"
 "http://www.w3.org/TR/2001/REC-SVG-20010904/DTD/svg10.dtd">
<svg version="1.0" xmlns="http://www.w3.org/2000/svg"
 width="849.000000pt" height="849.000000pt" viewBox="0 0 849.000000 849.000000"
 preserveAspectRatio="xMidYMid meet">
<metadata>
Created by potrace 1.11, written by Peter Selinger 2001-2013
</metadata>
<g transform="translate(0.000000,849.000000) scale(0.100000,-0.100000)"
fill="#000000" stroke="none">
<path d="M363 7894 c-14 -3 -24 -15 -28 -34 -7 -34 -12 -281 -20 -1005 -11
-1126 -19 -1624 -32 -2110 -10 -338 -11 -1664 -2 -1755 4 -36 14 -99 24 -140
9 -41 18 -84 21 -95 31 -153 141 -444 209 -555 12 -19 39 -64 60 -100 94 -159
219 -330 324 -445 74 -80 291 -296 357 -355 125 -112 438 -327 609 -420 44
-23 98 -53 120 -66 179 -102 632 -275 925 -353 109 -29 368 -84 455 -96 22 -3
65 -10 95 -15 30 -5 79 -12 109 -15 30 -4 63 -9 75 -11 116 -24 981 -24 1101
0 11 2 47 7 80 10 65 8 106 14 145 21 14 3 41 7 60 10 19 2 68 11 107 19 40 9
85 18 100 21 32 5 229 55 317 79 173 48 518 183 666 260 283 149 599 359 760
506 349 320 582 625 793 1040 101 200 201 438 247 590 13 41 29 94 36 117 53
168 120 474 139 629 4 33 9 67 11 76 1 9 6 48 9 85 4 37 9 70 10 73 8 14 18
284 18 475 0 186 -6 316 -17 395 -2 14 -7 52 -10 85 -4 33 -9 71 -11 85 -3 14
-7 48 -10 75 -4 28 -8 57 -10 65 -3 8 -7 33 -11 55 -4 32 -25 134 -49 244 -97
441 -402 1060 -670 1361 -50 56 -246 253 -302 302 -372 333 -963 582 -1668
703 -16 3 -41 7 -55 9 -21 4 -83 13 -210 31 -14 2 -43 6 -66 10 -22 3 -56 8
-75 10 -19 1 -63 6 -99 9 -36 4 -81 9 -100 11 -68 8 -200 19 -375 31 -147 10
-192 12 -367 19 -92 4 -186 8 -210 10 -38 3 -137 9 -368 20 -126 6 -528 16
-845 20 -498 7 -2348 14 -2372 9z m3704 -2435 c43 -30 80 -56 83 -59 3 -3 90
-71 193 -150 225 -173 386 -297 407 -313 9 -7 63 -48 120 -91 534 -404 550
-420 550 -546 0 -111 -37 -159 -237 -305 -37 -27 -74 -56 -81 -63 -8 -6 -23
-17 -35 -24 -12 -6 -38 -23 -57 -38 -75 -58 -576 -424 -793 -579 -125 -90
-249 -171 -275 -181 -111 -41 -236 12 -295 125 -19 38 -20 56 -20 325 0 157 3
483 7 725 18 1087 17 1057 47 1118 28 56 47 75 93 99 55 28 122 37 173 22 22
-6 76 -36 120 -65z"/>
</g>
</svg>
